<svg width="72" height="35" viewBox="0 0 72 35" fill="none" xmlns="http://www.w3.org/2000/svg">
<path d="M8.79201 35V9.65602H0.200012V3.70402H24.488V9.65602H15.896V35H8.79201Z" fill="#4223FF"/>
<path d="M28.7919 35V11.192H35.8479V35H28.7919ZM32.2959 7.68802C31.1119 7.68802 30.1519 7.35202 29.4159 6.68002C28.6799 6.00802 28.3119 5.11202 28.3119 3.99202C28.3119 2.87202 28.6799 1.97602 29.4159 1.30402C30.1519 0.632021 31.1119 0.296021 32.2959 0.296021C33.4799 0.296021 34.4399 0.632021 35.1759 1.30402C35.9119 1.97602 36.2799 2.87202 36.2799 3.99202C36.2799 5.11202 35.9119 6.00802 35.1759 6.68002C34.4399 7.35202 33.4799 7.68802 32.2959 7.68802Z" fill="#4223FF"/>
<path d="M42.6335 35V3.70402H50.3615L55.4015 17.624C55.7215 18.52 56.0255 19.464 56.3135 20.456C56.6015 21.448 56.9055 22.424 57.2255 23.384H57.4175C57.7375 22.424 58.0255 21.448 58.2815 20.456C58.5695 19.464 58.8735 18.52 59.1935 17.624L64.1375 3.70402H71.8175V35H65.3855V23.528C65.3855 22.504 65.4335 21.368 65.5295 20.12C65.6575 18.84 65.7855 17.56 65.9135 16.28C66.0735 15 66.2015 13.864 66.2975 12.872H66.1055L63.5615 20.312L59.0975 32.264H55.2095L50.7455 20.312L48.2495 12.872H48.0575C48.1855 13.864 48.3135 15 48.4415 16.28C48.5695 17.56 48.6815 18.84 48.7775 20.12C48.9055 21.368 48.9695 22.504 48.9695 23.528V35H42.6335Z" fill="#4223FF"/>
</svg>
